G04 EAGLE Gerber X2 export*
G75*
%MOMM*%
%FSLAX34Y34*%
%LPD*%
%AMOC8*
5,1,8,0,0,1.08239X$1,22.5*%
G01*
%ADD10C,3.160000*%
%ADD11C,4.950000*%
%ADD12P,1.814519X8X112.500000*%
%ADD13P,1.429621X8X112.500000*%
%ADD14P,1.429621X8X292.500000*%
%ADD15C,1.308000*%
%ADD16C,1.308000*%
%ADD17C,1.943100*%
%ADD18C,1.676400*%
%ADD19R,2.800000X2.800000*%
%ADD20P,2.336880X8X22.500000*%
%ADD21C,0.152400*%


D10*
X474750Y771550D03*
X347750Y771550D03*
D11*
X530400Y619150D03*
X292100Y619150D03*
X530400Y396850D03*
X292100Y396850D03*
D12*
X774700Y88900D03*
X774700Y114300D03*
D13*
X393700Y63500D03*
X393700Y165100D03*
D14*
X444500Y165100D03*
X444500Y63500D03*
X495300Y165100D03*
X495300Y63500D03*
X546100Y165100D03*
X546100Y63500D03*
D15*
X768160Y406400D02*
X781240Y406400D01*
X781240Y431800D02*
X768160Y431800D01*
X768160Y457200D02*
X781240Y457200D01*
X781240Y482600D02*
X768160Y482600D01*
X768160Y508000D02*
X781240Y508000D01*
X781240Y533400D02*
X768160Y533400D01*
X768160Y558800D02*
X781240Y558800D01*
X781240Y584200D02*
X768160Y584200D01*
X768160Y609600D02*
X781240Y609600D01*
X781240Y635000D02*
X768160Y635000D01*
X768160Y660400D02*
X781240Y660400D01*
X781240Y685800D02*
X768160Y685800D01*
X628840Y406400D02*
X615760Y406400D01*
X615760Y431800D02*
X628840Y431800D01*
X628840Y457200D02*
X615760Y457200D01*
X615760Y609600D02*
X628840Y609600D01*
X628840Y635000D02*
X615760Y635000D01*
X615760Y660400D02*
X628840Y660400D01*
X628840Y685800D02*
X615760Y685800D01*
X615760Y762000D02*
X628840Y762000D01*
X768160Y762000D02*
X781240Y762000D01*
X781240Y736600D02*
X768160Y736600D01*
X768160Y711200D02*
X781240Y711200D01*
X628840Y736600D02*
X615760Y736600D01*
X615760Y711200D02*
X628840Y711200D01*
X628840Y482600D02*
X615760Y482600D01*
D16*
X673100Y419100D03*
X698500Y419100D03*
X723900Y419100D03*
D15*
X628840Y584200D02*
X615760Y584200D01*
X615760Y558800D02*
X628840Y558800D01*
X628840Y533400D02*
X615760Y533400D01*
X615760Y508000D02*
X628840Y508000D01*
D16*
X673100Y393700D03*
X698500Y393700D03*
X723900Y393700D03*
D17*
X914400Y711200D03*
X965200Y762000D03*
X863600Y762000D03*
X863600Y660400D03*
X965200Y660400D03*
X914400Y558800D03*
X965200Y609600D03*
X863600Y609600D03*
X863600Y508000D03*
X965200Y508000D03*
X914400Y254000D03*
X965200Y304800D03*
X863600Y304800D03*
X863600Y203200D03*
X965200Y203200D03*
X914400Y101600D03*
X965200Y152400D03*
X863600Y152400D03*
X863600Y50800D03*
X965200Y50800D03*
X914400Y406400D03*
X965200Y457200D03*
X863600Y457200D03*
X863600Y355600D03*
X965200Y355600D03*
D18*
X209700Y267100D03*
X209700Y292100D03*
X209700Y317100D03*
D19*
X139700Y337100D03*
X139700Y247100D03*
D18*
X209700Y686200D03*
X209700Y711200D03*
X209700Y736200D03*
D19*
X139700Y756200D03*
X139700Y666200D03*
D18*
X209700Y546500D03*
X209700Y571500D03*
X209700Y596500D03*
D19*
X139700Y616500D03*
X139700Y526500D03*
D18*
X209700Y406800D03*
X209700Y431800D03*
X209700Y456800D03*
D19*
X139700Y476800D03*
X139700Y386800D03*
D20*
X647700Y254000D03*
X749300Y254000D03*
X317500Y139700D03*
X317500Y88900D03*
X596900Y139700D03*
X596900Y88900D03*
X139700Y127000D03*
X139700Y101600D03*
X266700Y88900D03*
X266700Y139700D03*
D21*
X496786Y64332D02*
X532526Y64332D01*
X555757Y87563D01*
X596858Y87563D01*
X496786Y64332D02*
X495300Y63500D01*
X596858Y87563D02*
X596900Y88900D01*
X621876Y430667D02*
X366335Y430667D01*
X253754Y318086D01*
X210866Y318086D01*
X621876Y430667D02*
X622300Y431800D01*
X210866Y318086D02*
X209700Y317100D01*
X646894Y253754D02*
X646894Y189422D01*
X598645Y141173D01*
X646894Y253754D02*
X647700Y254000D01*
X598645Y141173D02*
X596900Y139700D01*
X864908Y763049D02*
X964980Y763049D01*
X864908Y763049D02*
X863600Y762000D01*
X964980Y763049D02*
X965200Y762000D01*
X964980Y659403D02*
X964980Y611154D01*
X965200Y609600D01*
X964980Y659403D02*
X965200Y660400D01*
X863121Y659403D02*
X863121Y611154D01*
X863600Y609600D01*
X863121Y659403D02*
X863600Y660400D01*
X863121Y507508D02*
X863121Y457472D01*
X863600Y457200D01*
X863121Y507508D02*
X863600Y508000D01*
X964980Y507508D02*
X964980Y457472D01*
X964980Y507508D02*
X965200Y508000D01*
X964980Y457472D02*
X864908Y457472D01*
X863600Y457200D01*
X964980Y457472D02*
X965200Y457200D01*
X964980Y609367D02*
X864908Y609367D01*
X964980Y609367D02*
X965200Y609600D01*
X864908Y609367D02*
X863600Y609600D01*
X863121Y661190D02*
X863121Y761262D01*
X863600Y762000D01*
X863121Y661190D02*
X863600Y660400D01*
X863121Y353826D02*
X863121Y305577D01*
X863600Y304800D01*
X863121Y353826D02*
X863600Y355600D01*
X964980Y353826D02*
X964980Y305577D01*
X964980Y353826D02*
X965200Y355600D01*
X964980Y305577D02*
X864908Y305577D01*
X863600Y304800D01*
X964980Y305577D02*
X965200Y304800D01*
X964980Y201931D02*
X964980Y153682D01*
X965200Y152400D01*
X964980Y201931D02*
X965200Y203200D01*
X825594Y114368D02*
X775558Y114368D01*
X825594Y114368D02*
X863121Y151895D01*
X775558Y114368D02*
X774700Y114300D01*
X863121Y151895D02*
X863600Y152400D01*
X863121Y76841D02*
X863121Y51823D01*
X863121Y76841D02*
X825594Y114368D01*
X863121Y51823D02*
X863600Y50800D01*
X864908Y51823D02*
X964980Y51823D01*
X965200Y50800D01*
X864908Y51823D02*
X863600Y50800D01*
X863121Y153682D02*
X863121Y201931D01*
X863600Y203200D01*
X863121Y153682D02*
X863600Y152400D01*
X864908Y151895D02*
X964980Y151895D01*
X965200Y152400D01*
X864908Y151895D02*
X863600Y152400D01*
X698717Y189422D02*
X646894Y189422D01*
X698717Y189422D02*
X773771Y114368D01*
X774700Y114300D01*
X482490Y62545D02*
X444963Y62545D01*
X482490Y62545D02*
X491425Y53610D01*
X739818Y53610D01*
X773771Y87563D01*
X444963Y62545D02*
X444500Y63500D01*
X773771Y87563D02*
X774700Y88900D01*
X621876Y680847D02*
X621876Y684421D01*
X621876Y680847D02*
X605793Y664764D01*
X605793Y605793D01*
X616515Y595071D01*
X632598Y595071D01*
X643320Y584349D01*
X643320Y407436D01*
X402075Y166191D01*
X394927Y166191D01*
X621876Y684421D02*
X622300Y685800D01*
X394927Y166191D02*
X393700Y165100D01*
X259115Y101859D02*
X141173Y101859D01*
X259115Y101859D02*
X282346Y125090D01*
X353826Y125090D01*
X393140Y164404D01*
X141173Y101859D02*
X139700Y101600D01*
X393140Y164404D02*
X393700Y165100D01*
X318086Y89350D02*
X469981Y89350D01*
X545035Y164404D01*
X318086Y89350D02*
X317500Y88900D01*
X545035Y164404D02*
X546100Y165100D01*
X750540Y253754D02*
X913157Y253754D01*
X914400Y254000D01*
X750540Y253754D02*
X749300Y254000D01*
X775558Y582562D02*
X889926Y582562D01*
X913157Y559331D01*
X775558Y582562D02*
X774700Y584200D01*
X913157Y559331D02*
X914400Y558800D01*
X621876Y482490D02*
X285920Y482490D01*
X214440Y411010D02*
X210866Y407436D01*
X214440Y411010D02*
X285920Y482490D01*
X621876Y482490D02*
X622300Y482600D01*
X210866Y407436D02*
X209700Y406800D01*
X209079Y275198D02*
X209079Y268050D01*
X209079Y275198D02*
X198357Y285920D01*
X198357Y394927D01*
X209079Y405649D01*
X209079Y268050D02*
X209700Y267100D01*
X209079Y405649D02*
X209700Y406800D01*
X209079Y473555D02*
X209079Y545035D01*
X209079Y473555D02*
X198357Y462833D01*
X198357Y427093D01*
X214440Y411010D01*
X209079Y545035D02*
X209700Y546500D01*
X214440Y411010D02*
X209700Y406800D01*
X209079Y612941D02*
X209079Y684421D01*
X209079Y612941D02*
X198357Y602219D01*
X198357Y557544D01*
X209079Y546822D01*
X209079Y684421D02*
X209700Y686200D01*
X209079Y546822D02*
X209700Y546500D01*
X316299Y160830D02*
X316299Y141173D01*
X316299Y160830D02*
X210866Y266263D01*
X316299Y141173D02*
X317500Y139700D01*
X210866Y266263D02*
X209700Y267100D01*
X623663Y634385D02*
X627237Y634385D01*
X768410Y493212D01*
X809511Y493212D01*
X895287Y407436D01*
X913157Y407436D01*
X623663Y634385D02*
X622300Y635000D01*
X913157Y407436D02*
X914400Y406400D01*
X621876Y532526D02*
X310938Y532526D01*
X210866Y432454D01*
X621876Y532526D02*
X622300Y533400D01*
X210866Y432454D02*
X209700Y431800D01*
X221588Y559331D02*
X621876Y559331D01*
X221588Y559331D02*
X210866Y570053D01*
X621876Y559331D02*
X622300Y558800D01*
X210866Y570053D02*
X209700Y571500D01*
X623663Y514656D02*
X623663Y509295D01*
X623663Y514656D02*
X639746Y530739D01*
X639746Y562905D01*
X629024Y573627D01*
X377057Y573627D01*
X241245Y709439D01*
X210866Y709439D01*
X622300Y508000D02*
X623663Y509295D01*
X210866Y709439D02*
X209700Y711200D01*
M02*
