M48
;GenerationSoftware,Autodesk,EAGLE,9.0.1*%
;CreationDate,2018-07-03T15:16:02Z*%
FMAT,2
ICI,OFF
METRIC,TZ,000.000
T8C0.800
T7C0.813
T6C1.016
T5C1.100
T4C1.295
T3C1.600
T2C2.110
T1C3.300
%
G90
M71
T1
X53040Y61915
X29210Y61915
X53040Y39685
X29210Y39685
T2
X47475Y77155
X34775Y77155
T3
X13970Y38680
X13970Y47680
X13970Y52650
X13970Y61650
X13970Y66620
X13970Y75620
X13970Y24710
X13970Y33710
T4
X86360Y60960
X96520Y60960
X91440Y55880
X96520Y66040
X86360Y66040
X86360Y76200
X91440Y71120
X86360Y20320
X96520Y76200
X86360Y30480
X96520Y30480
X91440Y25400
X96520Y50800
X86360Y50800
X96520Y20320
X96520Y35560
X86360Y35560
X86360Y45720
X96520Y45720
X91440Y40640
X96520Y5080
X86360Y5080
X86360Y15240
X96520Y15240
X91440Y10160
T5
X20970Y40680
X20970Y45680
X20970Y43180
X20970Y26710
X20970Y29210
X20970Y31710
X20970Y68620
X20970Y71120
X20970Y73620
X20970Y54650
X20970Y57150
X20970Y59650
T6
X26670Y8890
X13970Y10160
X13970Y12700
X59690Y8890
X59690Y13970
X31750Y8890
X74930Y25400
X26670Y13970
X64770Y25400
X31750Y13970
T7
X77470Y8890
X77470Y11430
X39370Y6350
X39370Y16510
X44450Y16510
X44450Y6350
X49530Y16510
X54610Y6350
X54610Y16510
X49530Y6350
T8
X77470Y40640
X77470Y43180
X77470Y45720
X77470Y48260
X77470Y50800
X62230Y73660
X62230Y71120
X77470Y71120
X77470Y73660
X77470Y76200
X77470Y68580
X62230Y50800
X62230Y53340
X62230Y55880
X77470Y66040
X77470Y63500
X62230Y58420
X72390Y41910
X69850Y41910
X77470Y60960
X77470Y58420
X69850Y39370
X62230Y40640
X62230Y48260
X77470Y55880
X77470Y53340
X72390Y39370
X62230Y43180
X67310Y39370
X62230Y45720
X62230Y60960
X62230Y63500
X62230Y66040
X62230Y68580
X62230Y76200
X67310Y41910
M30