G04 EAGLE Gerber X2 export*
G75*
%MOMM*%
%FSLAX34Y34*%
%LPD*%
%AMOC8*
5,1,8,0,0,1.08239X$1,22.5*%
G01*
%ADD10C,3.160000*%
%ADD11C,4.950000*%
%ADD12P,1.814519X8X112.500000*%
%ADD13P,1.429621X8X112.500000*%
%ADD14P,1.429621X8X292.500000*%
%ADD15C,1.308000*%
%ADD16C,1.308000*%
%ADD17C,1.943100*%
%ADD18C,1.676400*%
%ADD19R,2.800000X2.800000*%
%ADD20P,2.336880X8X22.500000*%
%ADD21C,0.152400*%


D10*
X474750Y771550D03*
X347750Y771550D03*
D11*
X530400Y619150D03*
X292100Y619150D03*
X530400Y396850D03*
X292100Y396850D03*
D12*
X774700Y88900D03*
X774700Y114300D03*
D13*
X393700Y63500D03*
X393700Y165100D03*
D14*
X444500Y165100D03*
X444500Y63500D03*
X495300Y165100D03*
X495300Y63500D03*
X546100Y165100D03*
X546100Y63500D03*
D15*
X768160Y406400D02*
X781240Y406400D01*
X781240Y431800D02*
X768160Y431800D01*
X768160Y457200D02*
X781240Y457200D01*
X781240Y482600D02*
X768160Y482600D01*
X768160Y508000D02*
X781240Y508000D01*
X781240Y533400D02*
X768160Y533400D01*
X768160Y558800D02*
X781240Y558800D01*
X781240Y584200D02*
X768160Y584200D01*
X768160Y609600D02*
X781240Y609600D01*
X781240Y635000D02*
X768160Y635000D01*
X768160Y660400D02*
X781240Y660400D01*
X781240Y685800D02*
X768160Y685800D01*
X628840Y406400D02*
X615760Y406400D01*
X615760Y431800D02*
X628840Y431800D01*
X628840Y457200D02*
X615760Y457200D01*
X615760Y609600D02*
X628840Y609600D01*
X628840Y635000D02*
X615760Y635000D01*
X615760Y660400D02*
X628840Y660400D01*
X628840Y685800D02*
X615760Y685800D01*
X615760Y762000D02*
X628840Y762000D01*
X768160Y762000D02*
X781240Y762000D01*
X781240Y736600D02*
X768160Y736600D01*
X768160Y711200D02*
X781240Y711200D01*
X628840Y736600D02*
X615760Y736600D01*
X615760Y711200D02*
X628840Y711200D01*
X628840Y482600D02*
X615760Y482600D01*
D16*
X673100Y419100D03*
X698500Y419100D03*
X723900Y419100D03*
D15*
X628840Y584200D02*
X615760Y584200D01*
X615760Y558800D02*
X628840Y558800D01*
X628840Y533400D02*
X615760Y533400D01*
X615760Y508000D02*
X628840Y508000D01*
D16*
X673100Y393700D03*
X698500Y393700D03*
X723900Y393700D03*
D17*
X914400Y711200D03*
X965200Y762000D03*
X863600Y762000D03*
X863600Y660400D03*
X965200Y660400D03*
X914400Y558800D03*
X965200Y609600D03*
X863600Y609600D03*
X863600Y508000D03*
X965200Y508000D03*
X914400Y254000D03*
X965200Y304800D03*
X863600Y304800D03*
X863600Y203200D03*
X965200Y203200D03*
X914400Y101600D03*
X965200Y152400D03*
X863600Y152400D03*
X863600Y50800D03*
X965200Y50800D03*
X914400Y406400D03*
X965200Y457200D03*
X863600Y457200D03*
X863600Y355600D03*
X965200Y355600D03*
D18*
X209700Y267100D03*
X209700Y292100D03*
X209700Y317100D03*
D19*
X139700Y337100D03*
X139700Y247100D03*
D18*
X209700Y686200D03*
X209700Y711200D03*
X209700Y736200D03*
D19*
X139700Y756200D03*
X139700Y666200D03*
D18*
X209700Y546500D03*
X209700Y571500D03*
X209700Y596500D03*
D19*
X139700Y616500D03*
X139700Y526500D03*
D18*
X209700Y406800D03*
X209700Y431800D03*
X209700Y456800D03*
D19*
X139700Y476800D03*
X139700Y386800D03*
D20*
X647700Y254000D03*
X749300Y254000D03*
X317500Y139700D03*
X317500Y88900D03*
X596900Y139700D03*
X596900Y88900D03*
X139700Y127000D03*
X139700Y101600D03*
X266700Y88900D03*
X266700Y139700D03*
D21*
X773771Y730883D02*
X773771Y736244D01*
X773771Y730883D02*
X643320Y600432D01*
X643320Y312725D01*
X496786Y166191D01*
X773771Y736244D02*
X774700Y736600D01*
X496786Y166191D02*
X495300Y165100D01*
X611154Y101859D02*
X913157Y101859D01*
X611154Y101859D02*
X598645Y89350D01*
X913157Y101859D02*
X914400Y101600D01*
X598645Y89350D02*
X596900Y88900D01*
X210866Y457472D02*
X210866Y530739D01*
X221588Y541461D01*
X221588Y584349D01*
X210866Y595071D01*
X210866Y457472D02*
X209700Y456800D01*
X210866Y595071D02*
X209700Y596500D01*
X210866Y727309D02*
X210866Y734457D01*
X210866Y727309D02*
X221588Y716587D01*
X221588Y607580D01*
X210866Y596858D01*
X210866Y734457D02*
X209700Y736200D01*
X210866Y596858D02*
X209700Y596500D01*
X275198Y770197D02*
X346678Y770197D01*
X275198Y770197D02*
X221588Y716587D01*
X346678Y770197D02*
X347750Y771550D01*
X141173Y216227D02*
X141173Y128664D01*
X141173Y216227D02*
X198357Y273411D01*
X198357Y305577D01*
X209079Y316299D01*
X141173Y128664D02*
X139700Y127000D01*
X209079Y316299D02*
X209700Y317100D01*
X210866Y446750D02*
X210866Y455685D01*
X210866Y446750D02*
X221588Y436028D01*
X221588Y328808D01*
X210866Y318086D01*
X210866Y455685D02*
X209700Y456800D01*
X210866Y318086D02*
X209700Y317100D01*
X394927Y64332D02*
X430667Y64332D01*
X439602Y73267D01*
X536100Y73267D01*
X545035Y64332D01*
X394927Y64332D02*
X393700Y63500D01*
X545035Y64332D02*
X546100Y63500D01*
X596858Y134025D02*
X596858Y139386D01*
X596858Y134025D02*
X536100Y73267D01*
X596858Y139386D02*
X596900Y139700D01*
X863121Y509295D02*
X863121Y609367D01*
X863600Y609600D01*
X863121Y509295D02*
X863600Y508000D01*
X863121Y303790D02*
X863121Y203718D01*
X863121Y303790D02*
X863600Y304800D01*
X863121Y203718D02*
X863600Y203200D01*
X863121Y355613D02*
X863121Y455685D01*
X863600Y457200D01*
X863121Y355613D02*
X863600Y355600D01*
X259115Y126877D02*
X141173Y126877D01*
X259115Y126877D02*
X321660Y64332D01*
X393140Y64332D01*
X141173Y126877D02*
X139700Y127000D01*
X393140Y64332D02*
X393700Y63500D01*
X773771Y680847D02*
X773771Y684421D01*
X773771Y680847D02*
X646894Y553970D01*
X646894Y302003D01*
X500360Y155469D01*
X453898Y155469D01*
X444963Y164404D01*
X773771Y684421D02*
X774700Y685800D01*
X444500Y165100D02*
X444963Y164404D01*
X773771Y502147D02*
X773771Y507508D01*
X773771Y502147D02*
X709439Y437815D01*
X709439Y335956D01*
X546822Y173339D01*
X546822Y166191D01*
X773771Y507508D02*
X774700Y508000D01*
X546822Y166191D02*
X546100Y165100D01*
X775558Y559331D02*
X780919Y559331D01*
X913157Y691569D01*
X913157Y709439D01*
X775558Y559331D02*
X774700Y558800D01*
X913157Y709439D02*
X914400Y711200D01*
X775558Y532526D02*
X775558Y527165D01*
X791641Y511082D01*
X791641Y296642D01*
X750540Y255541D01*
X775558Y532526D02*
X774700Y533400D01*
X750540Y255541D02*
X749300Y254000D01*
X621876Y407436D02*
X621876Y411010D01*
X475342Y557544D01*
X475342Y770197D01*
X621876Y407436D02*
X622300Y406400D01*
X475342Y770197D02*
X474750Y771550D01*
X623663Y609367D02*
X623663Y604006D01*
X639746Y587923D01*
X639746Y403862D01*
X528952Y293068D01*
X210866Y293068D01*
X622300Y609600D02*
X623663Y609367D01*
X210866Y293068D02*
X209700Y292100D01*
M02*
