G04 EAGLE Gerber X2 export*
G75*
%MOMM*%
%FSLAX34Y34*%
%LPD*%
%AMOC8*
5,1,8,0,0,1.08239X$1,22.5*%
G01*
%ADD10C,3.363200*%
%ADD11C,5.153200*%
%ADD12P,2.034460X8X112.500000*%
%ADD13P,1.649562X8X112.500000*%
%ADD14P,1.649562X8X292.500000*%
%ADD15C,1.511200*%
%ADD16C,1.511200*%
%ADD17C,2.146300*%
%ADD18C,1.879600*%
%ADD19R,3.003200X3.003200*%
%ADD20P,2.556822X8X22.500000*%


D10*
X474750Y771550D03*
X347750Y771550D03*
D11*
X530400Y619150D03*
X292100Y619150D03*
X530400Y396850D03*
X292100Y396850D03*
D12*
X774700Y88900D03*
X774700Y114300D03*
D13*
X393700Y63500D03*
X393700Y165100D03*
D14*
X444500Y165100D03*
X444500Y63500D03*
X495300Y165100D03*
X495300Y63500D03*
X546100Y165100D03*
X546100Y63500D03*
D15*
X768160Y406400D02*
X781240Y406400D01*
X781240Y431800D02*
X768160Y431800D01*
X768160Y457200D02*
X781240Y457200D01*
X781240Y482600D02*
X768160Y482600D01*
X768160Y508000D02*
X781240Y508000D01*
X781240Y533400D02*
X768160Y533400D01*
X768160Y558800D02*
X781240Y558800D01*
X781240Y584200D02*
X768160Y584200D01*
X768160Y609600D02*
X781240Y609600D01*
X781240Y635000D02*
X768160Y635000D01*
X768160Y660400D02*
X781240Y660400D01*
X781240Y685800D02*
X768160Y685800D01*
X628840Y406400D02*
X615760Y406400D01*
X615760Y431800D02*
X628840Y431800D01*
X628840Y457200D02*
X615760Y457200D01*
X615760Y609600D02*
X628840Y609600D01*
X628840Y635000D02*
X615760Y635000D01*
X615760Y660400D02*
X628840Y660400D01*
X628840Y685800D02*
X615760Y685800D01*
X615760Y762000D02*
X628840Y762000D01*
X768160Y762000D02*
X781240Y762000D01*
X781240Y736600D02*
X768160Y736600D01*
X768160Y711200D02*
X781240Y711200D01*
X628840Y736600D02*
X615760Y736600D01*
X615760Y711200D02*
X628840Y711200D01*
X628840Y482600D02*
X615760Y482600D01*
D16*
X673100Y419100D03*
X698500Y419100D03*
X723900Y419100D03*
D15*
X628840Y584200D02*
X615760Y584200D01*
X615760Y558800D02*
X628840Y558800D01*
X628840Y533400D02*
X615760Y533400D01*
X615760Y508000D02*
X628840Y508000D01*
D16*
X673100Y393700D03*
X698500Y393700D03*
X723900Y393700D03*
D17*
X914400Y711200D03*
X965200Y762000D03*
X863600Y762000D03*
X863600Y660400D03*
X965200Y660400D03*
X914400Y558800D03*
X965200Y609600D03*
X863600Y609600D03*
X863600Y508000D03*
X965200Y508000D03*
X914400Y254000D03*
X965200Y304800D03*
X863600Y304800D03*
X863600Y203200D03*
X965200Y203200D03*
X914400Y101600D03*
X965200Y152400D03*
X863600Y152400D03*
X863600Y50800D03*
X965200Y50800D03*
X914400Y406400D03*
X965200Y457200D03*
X863600Y457200D03*
X863600Y355600D03*
X965200Y355600D03*
D18*
X209700Y267100D03*
X209700Y292100D03*
X209700Y317100D03*
D19*
X139700Y337100D03*
X139700Y247100D03*
D18*
X209700Y686200D03*
X209700Y711200D03*
X209700Y736200D03*
D19*
X139700Y756200D03*
X139700Y666200D03*
D18*
X209700Y546500D03*
X209700Y571500D03*
X209700Y596500D03*
D19*
X139700Y616500D03*
X139700Y526500D03*
D18*
X209700Y406800D03*
X209700Y431800D03*
X209700Y456800D03*
D19*
X139700Y476800D03*
X139700Y386800D03*
D20*
X647700Y254000D03*
X749300Y254000D03*
X317500Y139700D03*
X317500Y88900D03*
X596900Y139700D03*
X596900Y88900D03*
X139700Y127000D03*
X139700Y101600D03*
X266700Y88900D03*
X266700Y139700D03*
M02*
